<svg width="28" height="32" viewBox="0 0 28 32" fill="none" xmlns="http://www.w3.org/2000/svg">
<g clip-path="url(#clip0_1_3)">
<path d="M2 28.9998C2 29.7955 2.31607 30.5586 2.87868 31.1212C3.44129 31.6838 4.20435 31.9998 5 31.9998H23C23.7956 31.9998 24.5587 31.6838 25.1213 31.1212C25.6839 30.5586 26 29.7955 26 28.9998V7.99984H2V28.9998ZM19 12.9998C19 12.7346 19.1054 12.4803 19.2929 12.2927C19.4804 12.1052 19.7348 11.9998 20 11.9998C20.2652 11.9998 20.5196 12.1052 20.7071 12.2927C20.8946 12.4803 21 12.7346 21 12.9998V26.9998C21 27.2651 20.8946 27.5194 20.7071 27.707C20.5196 27.8945 20.2652 27.9998 20 27.9998C19.7348 27.9998 19.4804 27.8945 19.2929 27.707C19.1054 27.5194 19 27.2651 19 26.9998V12.9998ZM13 12.9998C13 12.7346 13.1054 12.4803 13.2929 12.2927C13.4804 12.1052 13.7348 11.9998 14 11.9998C14.2652 11.9998 14.5196 12.1052 14.7071 12.2927C14.8946 12.4803 15 12.7346 15 12.9998V26.9998C15 27.2651 14.8946 27.5194 14.7071 27.707C14.5196 27.8945 14.2652 27.9998 14 27.9998C13.7348 27.9998 13.4804 27.8945 13.2929 27.707C13.1054 27.5194 13 27.2651 13 26.9998V12.9998ZM7 12.9998C7 12.7346 7.10536 12.4803 7.29289 12.2927C7.48043 12.1052 7.73478 11.9998 8 11.9998C8.26522 11.9998 8.51957 12.1052 8.70711 12.2927C8.89464 12.4803 9 12.7346 9 12.9998V26.9998C9 27.2651 8.89464 27.5194 8.70711 27.707C8.51957 27.8945 8.26522 27.9998 8 27.9998C7.73478 27.9998 7.48043 27.8945 7.29289 27.707C7.10536 27.5194 7 27.2651 7 26.9998V12.9998ZM27 1.99984H19.5L18.9125 0.831093C18.788 0.581227 18.5963 0.371045 18.3589 0.224192C18.1216 0.0773395 17.8479 -0.000357094 17.5688 -0.000156889H10.425C10.1465 -0.00122755 9.87331 0.0761794 9.63675 0.223195C9.4002 0.370211 9.20985 0.58089 9.0875 0.831093L8.5 1.99984H1C0.734784 1.99984 0.48043 2.1052 0.292893 2.29274C0.105357 2.48027 0 2.73463 0 2.99984L0 4.99984C0 5.26506 0.105357 5.51941 0.292893 5.70695C0.48043 5.89449 0.734784 5.99984 1 5.99984H27C27.2652 5.99984 27.5196 5.89449 27.7071 5.70695C27.8946 5.51941 28 5.26506 28 4.99984V2.99984C28 2.73463 27.8946 2.48027 27.7071 2.29274C27.5196 2.1052 27.2652 1.99984 27 1.99984V1.99984Z" fill="#CBEBF7"/>
</g>
<defs>
<clipPath id="clip0_1_3">
<rect width="28" height="32" fill="white"/>
</clipPath>
</defs>
</svg>
